<svg version="1.2" baseProfile="tiny-ps" xmlns="http://www.w3.org/2000/svg" viewBox="0 0 1024 1099" width="1024" height="1099">
	<title>Volodymyr Oleksandrovych Zelensky portrait vector flat-svg</title>
	<style>
		tspan { white-space:pre }
		.shp0 { fill: #fddc2e } 
		.shp1 { fill: #3571c4 } 
		.shp2 { fill: #000000 } 
		.shp3 { fill: #132028 } 
		.shp4 { fill: #ffffff } 
		.shp5 { fill: #cc8911 } 
		.shp6 { fill: #edc61a } 
		.shp7 { fill: #0b223d } 
		.shp8 { fill: #1d579e } 
		.shp9 { fill: #e5e5dd } 
		.shp10 { fill: none;stroke: #ffffff;stroke-width: 2 } 
		.shp11 { fill: #929497 } 
		.shp12 { fill: #103151 } 
	</style>
	<path id="Layer" class="shp0" d="M0 0L1024 0L1024 1024L0 1024L0 0Z" />
	<path id="Layer" class="shp1" d="M0 509.88L1024 509.88L1024 1024L0 1024L0 509.88Z" />
	<g id="Layer" style="opacity: 0.2">
		<path id="Layer" class="shp2" d="M144.42 278.25C143.11 288.13 139.33 297.27 133.09 305.67C127.52 313.06 120.37 318.37 111.62 321.6C102.88 324.84 93.96 326.46 84.88 326.46C75.34 326.46 66.45 324.84 58.22 321.6C49.98 318.37 42.85 313.06 36.84 305.67C30.59 297.5 26.81 288.3 25.51 278.08C24.2 267.85 23.55 257.86 23.55 248.09L23.55 90.34L59.49 90.34L59.49 253.88C59.49 258.54 59.72 263.2 60.18 267.85C60.63 272.51 61.74 276.71 63.5 280.46C65.26 284.21 67.81 287.19 71.16 289.4C74.51 291.62 79.08 292.73 84.88 292.73C90.78 292.73 95.41 291.62 98.76 289.4C102.11 287.19 104.67 284.21 106.43 280.46C108.19 276.71 109.29 272.51 109.75 267.85C110.2 263.2 110.43 258.54 110.43 253.89L110.43 90.34L146.38 90.34L146.38 248.09C146.38 258.31 145.72 268.37 144.42 278.25Z" />
		<path id="Layer" class="shp2" d="M276.02 323.05L237.01 213.51L217.76 245.88L217.76 323.05L181.81 323.05L181.81 90.34L217.75 90.34L217.75 186.94L269.71 90.34L308.38 90.34L259.32 175.18L315.37 323.05L276.02 323.05Z" />
		<path id="Layer" fill-rule="evenodd" class="shp2" d="M424.91 323.05L394.24 227.48L372.61 227.48L372.61 323.05L336.66 323.05L336.66 90.34L392.88 90.34C414.69 90.34 431.3 95.99 442.71 107.29C454.13 118.6 459.83 135.15 459.83 156.95C459.83 169.56 457.5 181.31 452.85 192.22C448.19 203.12 440.07 211.64 428.49 217.77L462.56 323.05L424.91 323.05L424.91 323.05ZM422.52 159C422.52 153.89 421.93 148.95 420.73 144.18C419.54 139.41 417.24 135.09 413.84 131.23C410.31 127.48 406 125.27 400.89 124.59C395.78 123.9 390.78 123.56 385.9 123.56L372.61 123.56L372.61 194.26L385.9 194.26C399.18 194.26 408.61 191.82 414.18 186.94C419.74 182.05 422.52 172.74 422.52 159Z" />
		<path id="Layer" fill-rule="evenodd" class="shp2" d="M585.38 323.05L575.67 272.45L525.76 272.45L516.73 323.05L481.47 323.05L526.1 90.34L575.33 90.34L622.35 323.05L585.38 323.05ZM550.12 134.98L531.72 239.24L569.37 239.24L550.12 134.98Z" />
		<path id="Layer" class="shp2" d="M647.05 323.05L647.05 90.34L683 90.34L683 323.05L647.05 323.05Z" />
		<path id="Layer" class="shp2" d="M815.02 323.05L752.67 168.19L752.67 323.05L718.43 323.05L718.43 90.34L754.72 90.34L812.98 235.15L812.98 90.34L847.22 90.34L847.22 323.05L815.02 323.05Z" />
		<path id="Layer" fill-rule="evenodd" class="shp2" d="M978.23 323.05L968.51 272.45L918.6 272.45L909.57 323.05L874.31 323.05L918.94 90.34L968.17 90.34L1015.19 323.05L978.23 323.05ZM942.96 134.98L924.56 239.24L962.21 239.24L942.96 134.98Z" />
	</g>
	<g id="Layer">
		<path id="Layer" class="shp3" d="M0 1024L1024 1024L1024 1098.73L0 1098.73L0 1024Z" />
		<g id="Layer">
			<g id="Layer">
				<path id="Layer" fill-rule="evenodd" class="shp4" d="M307.97 1048.05C311.62 1048.05 314.63 1049.01 316.99 1050.93C319.37 1052.83 320.55 1055.57 320.55 1059.14C320.55 1062.81 319.38 1065.61 317.01 1067.56C314.66 1069.5 311.61 1070.47 307.88 1070.47L303.33 1070.47L303.33 1048.05L307.97 1048.05ZM307.1 1067.92C308.56 1067.92 309.92 1067.77 311.22 1067.48C312.5 1067.2 313.63 1066.71 314.59 1066.02C315.56 1065.34 316.33 1064.45 316.9 1063.35C317.48 1062.24 317.76 1060.88 317.76 1059.25C317.76 1057.65 317.48 1056.29 316.91 1055.13C316.35 1054 315.56 1053.11 314.55 1052.46C313.53 1051.82 312.42 1051.34 311.19 1051.04C309.98 1050.75 308.62 1050.59 307.1 1050.59L306.13 1050.59L306.13 1067.92L307.1 1067.92Z" />
				<path id="Layer" fill-rule="evenodd" class="shp4" d="M324.66 1063.96C324.7 1065.2 325.1 1066.28 325.85 1067.2C326.63 1068.11 327.62 1068.57 328.85 1068.57C329.83 1068.57 330.63 1068.35 331.25 1067.9C331.88 1067.45 332.47 1066.77 333.02 1065.86L335.28 1067.14C334.63 1068.33 333.74 1069.26 332.59 1069.94C331.45 1070.61 330.19 1070.96 328.82 1070.96C326.75 1070.96 325.08 1070.26 323.83 1068.87C322.6 1067.46 321.99 1065.72 321.99 1063.63C321.99 1061.44 322.57 1059.62 323.74 1058.21C324.89 1056.82 326.56 1056.13 328.77 1056.13C330.91 1056.13 332.52 1056.82 333.62 1058.21C334.73 1059.6 335.28 1061.37 335.28 1063.55L335.28 1063.96L324.66 1063.96ZM332.61 1061.93C332.45 1060.86 332.05 1060.01 331.38 1059.39C330.7 1058.77 329.84 1058.44 328.77 1058.44C328.25 1058.44 327.77 1058.53 327.33 1058.71C326.88 1058.87 326.49 1059.12 326.13 1059.43C325.79 1059.75 325.5 1060.13 325.27 1060.55C325.04 1060.98 324.89 1061.45 324.82 1061.93L332.61 1061.93L332.61 1061.93Z" />
				<path id="Layer" class="shp4" d="M343.17 1059.74C342.77 1058.92 342.18 1058.52 341.39 1058.52C341.02 1058.52 340.67 1058.64 340.37 1058.91C340.07 1059.18 339.93 1059.52 339.93 1059.88C339.93 1060.24 340.04 1060.54 340.27 1060.78C340.5 1061.03 340.81 1061.27 341.2 1061.49C341.47 1061.6 341.66 1061.7 341.8 1061.76C341.94 1061.84 342.17 1061.94 342.49 1062.08C342.65 1062.15 342.79 1062.23 342.91 1062.26C343.02 1062.3 343.11 1062.33 343.17 1062.38C344.16 1062.83 344.95 1063.37 345.52 1063.96C346.1 1064.56 346.38 1065.34 346.38 1066.34C346.38 1067.65 345.91 1068.75 344.96 1069.64C344.02 1070.52 342.91 1070.95 341.59 1070.95C341.06 1070.95 340.54 1070.88 340.05 1070.73C339.55 1070.58 339.09 1070.37 338.66 1070.1C338.24 1069.82 337.87 1069.51 337.53 1069.12C337.2 1068.73 336.95 1068.3 336.78 1067.82L339.07 1066.78C339.72 1067.97 340.56 1068.56 341.59 1068.56C342.01 1068.56 342.4 1068.45 342.76 1068.23C343.11 1068 343.37 1067.71 343.54 1067.36C343.71 1067.01 343.75 1066.64 343.65 1066.23C343.55 1065.82 343.24 1065.43 342.72 1065.09L340.1 1063.68C339.64 1063.45 339.25 1063.22 338.92 1062.98C338.58 1062.73 338.3 1062.47 338.08 1062.21C337.86 1061.94 337.7 1061.65 337.6 1061.32C337.49 1060.99 337.43 1060.61 337.43 1060.17C337.43 1059.04 337.82 1058.1 338.62 1057.31C339.41 1056.52 340.39 1056.13 341.54 1056.13C343.28 1056.13 344.55 1056.94 345.35 1058.57L343.17 1059.74Z" />
				<path id="Layer" class="shp4" d="M352.78 1050.18C352.78 1050.68 352.6 1051.1 352.24 1051.47C351.89 1051.82 351.45 1051.98 350.94 1051.98C350.42 1051.98 349.99 1051.82 349.63 1051.47C349.27 1051.1 349.09 1050.68 349.09 1050.18C349.09 1049.67 349.27 1049.23 349.63 1048.85C349.98 1048.48 350.41 1048.31 350.94 1048.31C351.45 1048.31 351.89 1048.48 352.24 1048.85C352.6 1049.23 352.78 1049.67 352.78 1050.18ZM352.27 1070.47L349.59 1070.47L349.59 1056.54L352.27 1056.54L352.27 1070.47Z" />
				<path id="Layer" fill-rule="evenodd" class="shp4" d="M369.6 1070.21C369.6 1072.83 369.09 1074.85 368.1 1076.3C367.12 1077.74 365.34 1078.45 362.81 1078.45C360.85 1078.45 359.24 1077.88 357.99 1076.75C356.76 1075.62 356.12 1074.08 356.08 1072.14L358.76 1072.14C358.76 1073.39 359.15 1074.35 359.91 1075.04C360.67 1075.73 361.67 1076.07 362.93 1076.07C364.45 1076.07 365.5 1075.62 366.07 1074.73C366.63 1073.83 366.91 1072.57 366.91 1070.96L366.91 1068.3L366.86 1068.3C366.3 1069.14 365.61 1069.79 364.79 1070.25C363.96 1070.72 363.07 1070.96 362.12 1070.96C360.06 1070.96 358.43 1070.23 357.24 1068.78C356.05 1067.33 355.46 1065.54 355.46 1063.42C355.46 1061.41 356.06 1059.71 357.27 1058.3C358.49 1056.86 360.06 1056.13 362 1056.13C364.05 1056.13 365.66 1057.07 366.86 1058.93L366.91 1058.93L366.91 1056.55L369.6 1056.55L369.6 1070.21L369.6 1070.21ZM362.54 1068.57C363.95 1068.57 365.05 1068.09 365.84 1067.11C366.66 1066.13 367.06 1064.92 367.06 1063.51C367.06 1062.13 366.66 1060.94 365.84 1059.96C365.05 1059 363.94 1058.52 362.54 1058.52C361.21 1058.52 360.14 1059 359.32 1060C358.54 1060.97 358.13 1062.13 358.13 1063.51C358.13 1064.92 358.54 1066.12 359.32 1067.08C360.14 1068.07 361.21 1068.57 362.54 1068.57Z" />
				<path id="Layer" class="shp4" d="M375.76 1058.42L375.81 1058.42C376.21 1057.69 376.79 1057.12 377.54 1056.73C378.29 1056.33 379.12 1056.13 380.01 1056.13C380.92 1056.13 381.69 1056.27 382.33 1056.54C382.97 1056.82 383.47 1057.22 383.86 1057.74C384.25 1058.25 384.52 1058.89 384.69 1059.62C384.87 1060.37 384.94 1061.21 384.94 1062.17L384.94 1070.47L382.27 1070.47L382.27 1062.5C382.27 1061.12 382.07 1060.13 381.67 1059.49C381.27 1058.84 380.45 1058.52 379.2 1058.52C378.74 1058.52 378.36 1058.56 378.04 1058.64C377.72 1058.73 377.45 1058.87 377.21 1059.03C376.97 1059.2 376.77 1059.4 376.61 1059.61C376.46 1059.83 376.3 1060.07 376.17 1060.33C376.11 1060.46 376.05 1060.64 376 1060.86C375.95 1061.07 375.91 1061.3 375.87 1061.54C375.83 1061.76 375.8 1061.98 375.78 1062.21C375.76 1062.45 375.76 1062.62 375.76 1062.77L375.76 1064.08L375.76 1070.47L373.07 1070.47L373.07 1056.54L375.76 1056.54L375.76 1058.42L375.76 1058.42Z" />
				<path id="Layer" fill-rule="evenodd" class="shp4" d="M399.7 1044.64L399.7 1058.87L399.76 1058.87C401 1057.05 402.61 1056.13 404.62 1056.13C406.56 1056.13 408.13 1056.86 409.35 1058.3C410.56 1059.71 411.16 1061.41 411.16 1063.42C411.16 1065.54 410.56 1067.33 409.38 1068.78C408.18 1070.23 406.56 1070.96 404.5 1070.96C403.55 1070.96 402.66 1070.72 401.83 1070.25C401.01 1069.79 400.32 1069.14 399.76 1068.3L399.7 1068.3L399.7 1070.47L397.03 1070.47L397.03 1044.64L399.7 1044.64ZM403.95 1068.57C405.37 1068.57 406.47 1068.09 407.27 1067.11C408.08 1066.13 408.48 1064.92 408.48 1063.51C408.48 1062.13 408.08 1060.94 407.27 1059.96C406.47 1059 405.37 1058.52 403.95 1058.52C402.63 1058.52 401.56 1059 400.74 1060C399.95 1060.97 399.56 1062.13 399.56 1063.51C399.56 1064.92 399.95 1066.12 400.74 1067.08C401.56 1068.07 402.63 1068.57 403.95 1068.57Z" />
				<path id="Layer" class="shp4" d="M411.55 1056.55L414.67 1056.55L419.37 1065.39L423.74 1056.55L426.75 1056.55L415.48 1078.45L412.44 1078.45L417.92 1068.09L411.55 1056.55Z" />
				<path id="Layer" fill-rule="evenodd" class="shp4" d="M440.26 1064.84L437.7 1070.47L434.69 1070.47L445.41 1047.09L456.11 1070.47L453.11 1070.47L450.56 1064.84L440.26 1064.84ZM445.41 1053.22L441.41 1062.29L449.39 1062.29L445.41 1053.22Z" />
				<path id="Layer" class="shp4" d="M460.5 1070.47L457.82 1070.47L457.82 1044.64L460.5 1044.64L460.5 1070.47Z" />
				<path id="Layer" class="shp4" d="M467.1 1070.47L464.42 1070.47L464.42 1044.64L467.1 1044.64L467.1 1070.47Z" />
				<path id="Layer" class="shp4" d="M477.27 1059.83L477.27 1062.05L470.76 1062.05L470.76 1059.83L477.27 1059.83Z" />
				<path id="Layer" class="shp4" d="M487.68 1047.36C486.85 1046.98 486.26 1046.79 485.9 1046.79C485.32 1046.79 484.91 1046.96 484.66 1047.34C484.4 1047.7 484.22 1048.15 484.12 1048.69C484.06 1049.09 484.03 1049.4 484.01 1049.63C484 1049.86 484 1050.17 484 1050.57L484 1056.54L487.68 1056.54L487.68 1059.04L484 1059.04L484 1070.47L481.32 1070.47L481.32 1059.04L480.1 1059.04L480.1 1056.54L481.31 1056.54L481.31 1049.77C481.31 1046.12 482.82 1044.29 485.82 1044.29C486.47 1044.29 487.09 1044.41 487.68 1044.64L487.68 1047.36Z" />
				<path id="Layer" class="shp4" d="M491.82 1058.8L491.91 1058.8C492.25 1057.98 492.73 1057.32 493.4 1056.85C494.06 1056.37 494.83 1056.13 495.72 1056.13C496.46 1056.13 497.18 1056.36 497.93 1056.82L496.71 1059.26C496.27 1058.87 495.72 1058.69 495.07 1058.69C493.69 1058.69 492.78 1059.25 492.33 1060.36C492.13 1060.87 491.99 1061.39 491.92 1061.89C491.86 1062.39 491.82 1062.98 491.82 1063.64L491.82 1070.47L489.15 1070.47L489.15 1056.55L491.82 1056.55L491.82 1058.8L491.82 1058.8Z" />
				<path id="Layer" fill-rule="evenodd" class="shp4" d="M501.02 1063.96C501.06 1065.2 501.46 1066.28 502.22 1067.2C502.98 1068.11 503.98 1068.57 505.21 1068.57C506.17 1068.57 506.99 1068.35 507.61 1067.9C508.23 1067.45 508.83 1066.77 509.38 1065.86L511.63 1067.14C510.99 1068.33 510.09 1069.26 508.95 1069.94C507.81 1070.61 506.55 1070.96 505.18 1070.96C503.11 1070.96 501.44 1070.26 500.19 1068.87C498.96 1067.46 498.34 1065.72 498.34 1063.63C498.34 1061.44 498.93 1059.62 500.09 1058.21C501.24 1056.82 502.92 1056.13 505.12 1056.13C507.26 1056.13 508.89 1056.82 509.98 1058.21C511.08 1059.6 511.63 1061.37 511.63 1063.55L511.63 1063.96L501.02 1063.96ZM508.96 1061.93C508.8 1060.86 508.39 1060.01 507.73 1059.39C507.07 1058.77 506.2 1058.44 505.12 1058.44C504.61 1058.44 504.13 1058.53 503.68 1058.71C503.24 1058.87 502.84 1059.12 502.5 1059.43C502.14 1059.75 501.86 1060.13 501.62 1060.55C501.4 1060.98 501.25 1061.45 501.17 1061.93L508.96 1061.93L508.96 1061.93Z" />
				<path id="Layer" fill-rule="evenodd" class="shp4" d="M515.55 1063.96C515.59 1065.2 515.98 1066.28 516.73 1067.2C517.5 1068.11 518.51 1068.57 519.74 1068.57C520.71 1068.57 521.51 1068.35 522.13 1067.9C522.76 1067.45 523.34 1066.77 523.91 1065.86L526.16 1067.14C525.52 1068.33 524.63 1069.26 523.47 1069.94C522.33 1070.61 521.08 1070.96 519.71 1070.96C517.62 1070.96 515.96 1070.26 514.7 1068.87C513.48 1067.46 512.87 1065.72 512.87 1063.63C512.87 1061.44 513.45 1059.62 514.62 1058.21C515.77 1056.82 517.45 1056.13 519.65 1056.13C521.78 1056.13 523.41 1056.82 524.49 1058.21C525.61 1059.6 526.16 1061.37 526.16 1063.55L526.16 1063.96L515.55 1063.96ZM523.49 1061.93C523.33 1060.86 522.91 1060.01 522.24 1059.39C521.58 1058.77 520.72 1058.44 519.65 1058.44C519.13 1058.44 518.65 1058.53 518.2 1058.71C517.76 1058.87 517.37 1059.12 517.02 1059.43C516.66 1059.75 516.37 1060.13 516.15 1060.55C515.92 1060.98 515.77 1061.45 515.69 1061.93L523.49 1061.93L523.49 1061.93Z" />
				<path id="Layer" class="shp4" d="M534.83 1059.83L534.83 1062.05L528.3 1062.05L528.3 1059.83L534.83 1059.83Z" />
				<path id="Layer" fill-rule="evenodd" class="shp4" d="M548.72 1068.3L548.65 1068.3C548.1 1069.13 547.41 1069.79 546.59 1070.25C545.76 1070.72 544.87 1070.95 543.93 1070.95C541.86 1070.95 540.24 1070.23 539.05 1068.78C537.86 1067.33 537.25 1065.54 537.25 1063.42C537.25 1061.41 537.86 1059.71 539.08 1058.3C540.29 1056.86 541.86 1056.13 543.81 1056.13C545.81 1056.13 547.43 1057.04 548.65 1058.87L548.72 1058.87L548.72 1044.64L551.39 1044.64L551.39 1070.47L548.72 1070.47L548.72 1068.3ZM544.34 1068.57C545.75 1068.57 546.86 1068.09 547.64 1067.11C548.46 1066.13 548.87 1064.92 548.87 1063.51C548.87 1062.13 548.46 1060.94 547.64 1059.96C546.86 1059 545.75 1058.52 544.34 1058.52C543.01 1058.52 541.94 1059 541.13 1060C540.34 1060.97 539.94 1062.13 539.94 1063.51C539.94 1064.92 540.34 1066.12 541.13 1067.08C541.94 1068.07 543.01 1068.57 544.34 1068.57Z" />
				<path id="Layer" fill-rule="evenodd" class="shp4" d="M555.77 1058.27C557.22 1056.85 558.99 1056.13 561.07 1056.13C563.15 1056.13 564.91 1056.85 566.32 1058.27C567.78 1059.69 568.5 1061.47 568.5 1063.54C568.5 1065.62 567.78 1067.37 566.32 1068.82C564.91 1070.24 563.15 1070.95 561.07 1070.95C558.99 1070.95 557.22 1070.24 555.77 1068.82C554.34 1067.37 553.62 1065.62 553.62 1063.54C553.62 1061.47 554.34 1059.69 555.77 1058.27ZM556.3 1063.55C556.3 1064.83 556.78 1065.97 557.71 1066.95C558.62 1067.92 559.75 1068.39 561.07 1068.39C562.37 1068.39 563.5 1067.92 564.43 1066.95C565.36 1065.97 565.83 1064.83 565.83 1063.55C565.83 1062.23 565.36 1061.08 564.43 1060.12C563.5 1059.16 562.37 1058.69 561.07 1058.69C559.75 1058.69 558.62 1059.16 557.71 1060.12C556.78 1061.08 556.3 1062.23 556.3 1063.55Z" />
				<path id="Layer" class="shp4" d="M575.71 1065.42L579.8 1055.78L583.89 1065.42L587.94 1056.55L590.96 1056.55L583.89 1070.96L579.8 1061.64L575.71 1070.96L568.63 1056.55L571.66 1056.55L575.71 1065.42Z" />
				<path id="Layer" class="shp4" d="M594.99 1058.42L595.05 1058.42C595.44 1057.69 596.02 1057.12 596.77 1056.73C597.53 1056.33 598.35 1056.13 599.24 1056.13C600.15 1056.13 600.94 1056.27 601.57 1056.54C602.2 1056.82 602.71 1057.22 603.1 1057.74C603.48 1058.25 603.76 1058.89 603.92 1059.62C604.09 1060.37 604.18 1061.21 604.18 1062.17L604.18 1070.47L601.5 1070.47L601.5 1062.5C601.5 1061.12 601.32 1060.13 600.91 1059.49C600.51 1058.84 599.69 1058.52 598.43 1058.52C597.98 1058.52 597.6 1058.56 597.27 1058.64C596.96 1058.73 596.68 1058.87 596.44 1059.03C596.2 1059.2 596 1059.4 595.85 1059.61C595.68 1059.83 595.54 1060.07 595.41 1060.33C595.35 1060.46 595.29 1060.64 595.24 1060.86C595.19 1061.07 595.14 1061.3 595.11 1061.54C595.06 1061.76 595.04 1061.98 595.01 1062.21C595 1062.45 594.99 1062.62 594.99 1062.77L594.99 1064.08L594.99 1070.47L592.31 1070.47L592.31 1056.54L594.99 1056.54L594.99 1058.42L594.99 1058.42Z" />
				<path id="Layer" class="shp4" d="M610.67 1070.47L607.99 1070.47L607.99 1044.64L610.67 1044.64L610.67 1070.47Z" />
				<path id="Layer" fill-rule="evenodd" class="shp4" d="M615.37 1058.27C616.8 1056.85 618.58 1056.13 620.67 1056.13C622.75 1056.13 624.5 1056.85 625.94 1058.27C627.38 1059.69 628.1 1061.47 628.1 1063.54C628.1 1065.62 627.38 1067.37 625.94 1068.82C624.5 1070.24 622.75 1070.95 620.67 1070.95C618.58 1070.95 616.8 1070.24 615.37 1068.82C613.93 1067.37 613.22 1065.62 613.22 1063.54C613.22 1061.47 613.93 1059.69 615.37 1058.27ZM615.9 1063.55C615.9 1064.83 616.37 1065.97 617.3 1066.95C618.21 1067.92 619.34 1068.39 620.67 1068.39C621.97 1068.39 623.1 1067.92 624.03 1066.95C624.96 1065.97 625.42 1064.83 625.42 1063.55C625.42 1062.23 624.96 1061.08 624.03 1060.12C623.1 1059.16 621.97 1058.69 620.67 1058.69C619.34 1058.69 618.21 1059.16 617.3 1060.12C616.37 1061.08 615.9 1062.23 615.9 1063.55Z" />
				<path id="Layer" fill-rule="evenodd" class="shp4" d="M643.61 1070.47L640.92 1070.47L640.92 1068.3L640.87 1068.3C639.68 1070.06 638.1 1070.95 636.13 1070.95C634.09 1070.95 632.47 1070.23 631.25 1068.78C630.07 1067.33 629.47 1065.54 629.47 1063.42C629.47 1061.41 630.07 1059.71 631.29 1058.3C632.49 1056.86 634.08 1056.13 636.04 1056.13C638.03 1056.13 639.64 1057.04 640.87 1058.87L640.92 1058.87L640.92 1056.55L643.61 1056.55L643.61 1070.47ZM636.55 1068.57C637.97 1068.57 639.06 1068.09 639.86 1067.11C640.67 1066.13 641.08 1064.92 641.08 1063.51C641.08 1062.13 640.67 1060.94 639.86 1059.96C639.06 1059 637.97 1058.52 636.55 1058.52C635.23 1058.52 634.15 1059 633.35 1060C632.55 1060.97 632.14 1062.13 632.14 1063.51C632.14 1064.92 632.55 1066.12 633.35 1067.08C634.15 1068.07 635.23 1068.57 636.55 1068.57Z" />
				<path id="Layer" fill-rule="evenodd" class="shp4" d="M657.41 1068.3C656.85 1069.13 656.15 1069.79 655.34 1070.25C654.52 1070.72 653.64 1070.95 652.68 1070.95C650.61 1070.95 648.99 1070.23 647.79 1068.78C646.61 1067.33 646.01 1065.54 646.01 1063.42C646.01 1061.41 646.63 1059.71 647.83 1058.3C649.04 1056.86 650.61 1056.13 652.57 1056.13C654.57 1056.13 656.17 1057.04 657.41 1058.87L657.47 1058.87L657.47 1044.64L660.15 1044.64L660.15 1070.47L657.47 1070.47L657.47 1068.3L657.41 1068.3ZM653.1 1068.57C654.5 1068.57 655.6 1068.09 656.39 1067.11C657.21 1066.13 657.61 1064.92 657.61 1063.51C657.61 1062.13 657.21 1060.94 656.39 1059.96C655.6 1059 654.5 1058.52 653.1 1058.52C651.76 1058.52 650.69 1059 649.88 1060C649.09 1060.97 648.69 1062.13 648.69 1063.51C648.69 1064.92 649.09 1066.12 649.88 1067.08C650.69 1068.07 651.76 1068.57 653.1 1068.57Z" />
				<path id="Layer" class="shp4" d="M667.83 1069.22C667.83 1069.7 667.66 1070.1 667.33 1070.44C666.98 1070.78 666.57 1070.96 666.1 1070.96C665.62 1070.96 665.21 1070.78 664.89 1070.44C664.54 1070.1 664.37 1069.7 664.37 1069.22C664.37 1068.77 664.54 1068.36 664.89 1068.02C665.21 1067.67 665.62 1067.5 666.1 1067.5C666.57 1067.5 666.98 1067.67 667.33 1068.02C667.66 1068.36 667.83 1068.77 667.83 1069.22Z" />
				<path id="Layer" class="shp4" d="M682.46 1060.5C681.36 1059.25 680.02 1058.63 678.48 1058.63C677.19 1058.63 676.08 1059.12 675.17 1060.09C674.27 1061.07 673.85 1062.23 673.85 1063.51C673.85 1064.96 674.27 1066.14 675.17 1067.05C676.11 1067.99 677.27 1068.45 678.65 1068.45C680.08 1068.45 681.35 1067.82 682.46 1066.61L682.46 1070.02C681.31 1070.64 680.03 1070.95 678.63 1070.95C676.56 1070.95 674.79 1070.24 673.32 1068.83C671.88 1067.45 671.16 1065.72 671.16 1063.63C671.16 1061.49 671.88 1059.69 673.32 1058.27C674.78 1056.85 676.59 1056.13 678.77 1056.13C680.21 1056.13 681.43 1056.44 682.46 1057.04L682.46 1060.5L682.46 1060.5Z" />
				<path id="Layer" fill-rule="evenodd" class="shp4" d="M686.24 1058.27C687.69 1056.85 689.46 1056.13 691.54 1056.13C693.62 1056.13 695.39 1056.85 696.8 1058.27C698.26 1059.69 698.97 1061.47 698.97 1063.54C698.97 1065.62 698.26 1067.37 696.8 1068.82C695.39 1070.24 693.62 1070.95 691.54 1070.95C689.46 1070.95 687.69 1070.24 686.24 1068.82C684.81 1067.37 684.1 1065.62 684.1 1063.54C684.1 1061.47 684.81 1059.69 686.24 1058.27ZM686.78 1063.55C686.78 1064.83 687.25 1065.97 688.18 1066.95C689.08 1067.92 690.21 1068.39 691.54 1068.39C692.84 1068.39 693.97 1067.92 694.9 1066.95C695.83 1065.97 696.3 1064.83 696.3 1063.55C696.3 1062.23 695.83 1061.08 694.9 1060.12C693.97 1059.16 692.84 1058.69 691.54 1058.69C690.21 1058.69 689.08 1059.16 688.18 1060.12C687.25 1061.08 686.78 1062.23 686.78 1063.55Z" />
				<path id="Layer" class="shp4" d="M704.01 1058.3L704.07 1058.3C704.46 1057.66 704.98 1057.15 705.66 1056.74C706.32 1056.33 707.02 1056.13 707.75 1056.13C709.48 1056.13 710.82 1056.95 711.78 1058.6C712.21 1057.85 712.81 1057.24 713.58 1056.79C714.33 1056.35 715.17 1056.13 716.05 1056.13C719.14 1056.13 720.67 1058.13 720.67 1062.13L720.67 1070.47L718 1070.47L718 1062.58C718 1062.23 717.98 1061.88 717.94 1061.54C717.92 1061.18 717.86 1060.84 717.79 1060.52C717.7 1060.19 717.59 1059.88 717.43 1059.61C717.27 1059.34 717.04 1059.08 716.77 1058.87C716.42 1058.63 715.96 1058.52 715.41 1058.52C714.84 1058.52 714.38 1058.63 713.98 1058.87C713.59 1059.08 713.31 1059.36 713.1 1059.68C712.89 1060.01 712.72 1060.43 712.61 1060.92C712.5 1061.41 712.42 1061.86 712.38 1062.26C712.35 1062.65 712.34 1063.11 712.34 1063.63L712.34 1070.47L709.65 1070.47L709.65 1063.09C709.65 1062.62 709.65 1062.23 709.63 1061.91C709.61 1061.58 709.55 1061.19 709.45 1060.71C709.35 1060.2 709.23 1059.83 709.07 1059.58C708.9 1059.3 708.65 1059.06 708.33 1058.84C707.98 1058.63 707.58 1058.52 707.1 1058.52C705.74 1058.52 704.85 1059.1 704.45 1060.29C704.27 1060.86 704.16 1061.37 704.1 1061.88C704.03 1062.36 704.01 1062.95 704.01 1063.63L704.01 1070.47L701.32 1070.47L701.32 1056.54L704.01 1056.54L704.01 1058.3L704.01 1058.3Z" />
			</g>
			<g id="Layer">
				<g id="Layer">
					<path id="Layer" class="shp4" d="M240.91 1062.25C239.77 1062.25 239.77 1060.49 240.91 1060.49C253.55 1060.49 266.18 1060.49 278.81 1060.49C279.96 1060.49 279.96 1062.25 278.81 1062.25C266.18 1062.25 253.55 1062.25 240.91 1062.25L240.91 1062.25Z" />
				</g>
				<g id="Layer">
					<path id="Layer" class="shp4" d="M745.18 1062.25C744.04 1062.25 744.04 1060.49 745.18 1060.49C757.82 1060.49 770.45 1060.49 783.08 1060.49C784.23 1060.49 784.23 1062.25 783.08 1062.25C770.45 1062.25 757.82 1062.25 745.18 1062.25L745.18 1062.25Z" />
				</g>
			</g>
		</g>
	</g>
	<g id="Layer">
		<path id="Layer" class="shp0" d="M687.14 468.98C687.14 468.98 688.73 474.69 693.91 472.84C699.1 470.98 703.48 465.19 710.25 466.19C717.03 467.19 722.21 472.13 719.82 483.94C717.43 495.75 715.43 498.35 715.03 509.53C714.64 520.72 714.24 525.31 709.85 536.69C705.47 548.08 700.29 564.66 699.49 574.84C698.7 585.03 695.71 593.02 690.93 596.82C686.14 600.61 675.38 596.82 675.38 596.82C675.38 596.82 673.79 610.34 672 618.29C670.2 626.23 644.7 683.3 612.12 704.57C579.55 725.84 503.62 749.81 498.4 748.32C493.17 746.82 415.76 709.37 415.46 707.87C415.16 706.37 374.32 613.54 374.32 613.54L315.34 441.22C315.34 441.22 340.81 331.37 344.02 328.97C347.22 326.57 395.04 241.09 398.23 240.29C401.42 239.49 517.88 234.69 517.88 234.69C517.88 234.69 550.45 243.48 554.04 245.88C557.63 248.28 642.46 276.24 642.46 276.24L681.96 316.19L685.94 368.92L684.35 430.29C684.35 430.29 686.84 459.6 687.14 468.98Z" />
		<path id="Layer" class="shp5" d="M425.33 298.46C425.33 298.46 411.78 312.59 425.33 336.16C438.88 359.73 446.85 368.12 433.3 380.5C419.75 392.89 395.15 398.48 403.07 403.67C410.98 408.86 449.18 394.48 460.17 403.67C471.16 412.86 495.06 427.23 494.67 444.81C494.27 462.39 503.03 489.16 500.25 507.53C497.46 525.91 497.74 533.9 498.4 538.69C499.05 543.49 497.31 562.8 514.69 561.51C532.08 560.22 539.65 557.17 539.65 557.17C539.65 557.17 535.31 566.91 534.86 566.91C534.42 566.91 509.91 572.75 501.99 571.25C494.07 569.75 478.68 569.3 477.18 568.55C475.69 567.8 466.27 537.09 466.27 537.09L479.42 510.56L470.59 443.02C470.59 443.02 408.29 416.75 406.8 416.85C405.3 416.95 360.17 426.84 360.17 426.84C360.17 426.84 357.19 427.74 357.19 424.14C357.19 420.55 385.28 360.93 385.28 360.93L399.83 315.39L425.33 298.46Z" />
		<path id="Layer" class="shp5" d="M464.14 260.87C464.94 261.94 559.2 260.06 565.34 260.87C571.48 261.67 614.21 274.78 615.61 275.05C617.01 275.32 670.56 297 673.49 298.46C676.43 299.92 688.18 334.21 688.18 335.28C688.18 336.35 666.82 360.45 666.82 360.45C666.82 360.45 667.88 351.23 666.82 344.38C665.75 337.54 662.36 328.99 654.93 324.71C647.51 320.43 643.72 320.02 637.98 314.27C632.24 308.51 624.63 303.16 617.95 300.08C611.27 297 604.33 288.84 597.39 284.56C590.44 280.27 584.7 288.57 571.08 293.39C557.47 298.21 545.72 295.4 545.72 295.4C551.46 294.66 556.06 292.38 556.06 292.38C548.64 294.5 534.5 293.66 534.5 293.66C538.97 290.38 544.66 290 544.66 290C532.29 288.5 519.41 295.66 519.41 295.66C521.15 291.38 530.9 286.56 530.9 286.56L526.09 287.37C521.92 289.49 513.4 295.26 513.4 295.26C514.07 292.72 516.08 290 516.08 290C505.13 292.62 492.31 303.16 492.31 303.16C495.51 293.92 503.66 290 503.66 290C494.21 293.24 485.37 298.4 485.37 298.4C489.77 289.63 501.09 286.56 501.09 286.56L496.18 287.1C496.18 287.1 487.24 291.65 482.96 296.33C478.69 301.02 470.68 303.83 470.68 303.83C473.75 301.96 476.42 296.33 476.42 296.33C476.42 296.33 471.08 302.22 460.17 307.31C449.26 312.4 440.64 309.32 440.64 309.32C447.14 309.23 454.26 305.21 454.26 305.21C439.75 310.92 427.02 301.42 427.02 301.42C427.02 301.42 463.33 259.79 464.14 260.87Z" />
		<path id="Layer" class="shp6" d="M558.34 415.14C558.34 415.14 591.94 410.68 608.01 413.72C624.09 416.75 643.18 430.39 648.5 440.43C653.82 450.48 658.98 446.91 660.76 439.59C662.54 432.27 667.88 448.34 658.09 463.33C648.3 478.32 638.93 467.36 642.46 472.84C645.99 478.32 629.11 490.99 611.82 495.45C594.54 499.91 615.19 492.41 621.6 486.17C628.01 479.92 628.1 470.82 617.55 460.47C607 450.12 614.49 450.19 605.05 444.62C595.61 439.06 609.68 442.45 605.05 433.35C600.41 424.24 592.4 422.26 578.34 424.14C564.27 426.03 562.67 423.68 562.14 422.45C561.6 421.21 558.34 415.14 558.34 415.14Z" />
		<path id="Layer" class="shp7" d="M651.04 751.31C651.04 751.31 666.98 782.87 675.75 793.25C684.51 803.64 711.21 828.41 711.21 828.41C711.21 828.41 757.44 839.59 800.47 859.57C843.51 879.54 963.06 889.93 997.33 915.49C1031.6 941.06 1053.92 1099 1053.92 1099L-29 1099C-29 1099 -29 1081.87 -14.06 1012.36C0.89 942.86 46.91 918.29 62.46 915.29C78 912.3 161.08 884.73 193.36 866.76C225.64 848.78 286.61 833.2 286.61 833.2C286.61 833.2 306.34 813.43 322.48 794.25C338.62 775.08 352.94 745.71 352.94 745.71L651.04 751.31Z" />
		<path id="Layer" class="shp1" d="M470.56 839.87C470.56 839.87 492.18 833.72 508.46 839.87C524.75 846.03 545.32 851.14 545.58 848.59C545.85 846.03 535.97 838.42 551.72 837.14C567.48 835.86 612.07 840.95 623.29 845.23C634.51 849.51 643.05 867.98 643.05 869.32C643.05 870.66 638.24 912.15 631.57 912.15C624.89 912.15 602.46 937.31 602.46 937.31L597.65 984.16C597.65 984.16 616 1066.19 609.4 1099L559.2 1099L505.36 1099C505.36 1099 495.65 1023.78 486.3 994.6C476.95 965.42 454.52 927.21 446.78 922.35C439.04 917.5 424.88 918.04 424.08 898.5C423.28 878.96 468.68 836.94 468.68 836.94L470.56 839.87Z" />
		<path id="Layer" class="shp8" d="M465.48 839.99L470.56 839.87C470.56 839.87 473.46 892.88 512.46 907.87C551.46 922.86 574.04 948.02 554.47 973.18C537.59 994.89 524.02 1047 530.43 1099L505.36 1099C505.36 1099 495.65 1023.78 486.3 994.6C476.95 965.42 454.52 927.2 446.78 922.35C439.04 917.5 424.88 918.04 424.08 898.5C423.41 882.13 455.15 849.99 465.48 839.99Z" />
		<path id="Layer" class="shp4" d="M420.71 745.32C422.3 748.12 488.05 770.09 503.74 777.68C519.42 785.27 588.47 754.91 590.46 753.71C592.46 752.51 640.68 721.48 640.68 721.48C640.68 721.48 650.24 728.14 654.23 750.51C658.21 772.88 661.4 824.81 651.84 856.37C642.27 887.93 632.31 915.89 623.94 956.24C615.57 996.59 610.39 1073.69 610.39 1073.69C610.39 1073.69 609.6 1026.55 599.23 1005.78C588.87 985 580.9 967.83 582.1 954.64C583.29 941.46 581.3 946.66 579.71 937.07C578.11 927.48 590.86 905.86 600.13 894.17C609.39 882.49 614.48 887.28 614.48 887.28C612.83 898.07 620.6 903.46 628.37 902.26C636.14 901.06 636.69 903.51 636.69 903.51C636.69 903.51 637.89 898.32 623.54 871.95C609.19 845.59 557.79 838.79 548.62 839.99C539.46 841.19 556.59 851.18 556.59 851.18C556.59 851.18 541.05 854.77 523.32 847.18C505.59 839.59 497.62 843.19 470.52 858.37C443.42 873.55 427.48 908.7 427.48 908.7C427.48 908.7 447.8 909.5 454.98 909.5C462.15 909.5 476.1 928.28 483.67 936.26C491.24 944.25 494.83 936.67 494.83 936.67C494.83 936.67 499.21 951.85 510.77 962.23C522.32 972.62 516.35 979.41 510.77 1002.18C505.19 1024.95 502.4 1079.48 502.4 1079.48C502.4 1079.48 453.98 967.42 437.24 937.16C420.51 906.9 405.27 862.56 383.15 832C361.03 801.44 346.09 784.07 349.97 759.5C353.86 734.93 363.05 721.47 363.05 721.47C363.05 721.47 419.11 742.52 420.71 745.32Z" />
		<path id="Layer" class="shp9" d="M654.23 750.51C656.88 765.38 659.17 793.29 657.61 819.61C644.94 823.91 645.83 802.36 635.9 794.85C624.54 786.27 621.35 793.85 597.84 808.44C574.33 823.02 538.27 841.19 531.69 843.99C525.11 846.78 520.13 843.19 506.98 836C493.83 828.81 479.29 829.21 449.4 816.82C419.51 804.44 417.12 814.83 404.37 842.48C401.98 847.68 398.22 849.24 393.69 848.35C390.34 842.61 386.84 837.11 383.15 832C361.03 801.44 346.09 784.07 349.97 759.5C353.86 734.93 363.05 721.47 363.05 721.47C363.05 721.47 419.11 742.52 420.71 745.32C422.3 748.12 488.05 770.09 503.74 777.68C519.42 785.27 588.47 754.91 590.46 753.71C592.46 752.51 640.68 721.47 640.68 721.47C640.68 721.47 650.24 728.14 654.23 750.51Z" />
		<path id="Layer" class="shp6" d="M566.06 455.5C566.06 455.5 584.09 448.54 588.87 450.42C593.65 452.31 595.31 456.19 582.8 459.71C570.28 463.22 556.53 474.92 564.96 483.46C573.4 492.01 585.68 496.83 600.82 493.64C615.97 490.45 607.6 500.64 591.46 500.04C575.32 499.44 572.71 494.76 568.94 496.8C565.16 498.84 569.84 504.04 576.82 506.63C583.79 509.23 591.76 512.21 596.94 511.63C602.12 511.04 598.63 518.52 582.4 516.02C566.16 513.52 560.38 499.44 553.95 500.49C547.53 501.54 546.33 521.01 549.32 531.35C552.31 541.69 541.4 534.2 538.71 508.43C536.02 482.67 535.42 479.1 529.44 474.82C523.47 470.53 516.07 457.5 519.43 445.74C522.79 433.98 525.78 434.95 525.41 441.09C525.04 447.24 528.08 457.5 534.25 450.01C540.43 442.52 545.58 439.97 550.74 438.92C550.74 438.92 547.97 439.62 547.08 442.72C547.08 442.72 551.41 437.21 562.84 435.18C574.28 433.15 592.28 435.77 592.28 435.77L579.06 443.42L566.06 455.5Z" />
		<path id="Layer" class="shp7" d="M536.32 451.64C538.04 448.4 544.47 444.91 544.47 444.91C543.64 445.81 543.87 446.86 543.87 446.86C549.17 442.74 561.13 438.92 561.13 438.92C558.66 440.2 553.51 444.84 553.51 444.84C553.51 444.84 564.11 436.53 575.25 435.48C586.38 434.43 597.74 436.53 597.74 436.53C595.95 436.3 592.21 437.57 592.21 437.57C598.93 437.2 607.08 441.77 607.08 441.77C604.99 439.67 601.92 437.57 601.92 437.57C607.6 440.12 618.21 449.86 618.21 449.86C618.21 449.86 615.52 447.76 605.06 446.86C594.6 445.96 573.53 452.85 566.95 456.6C560.38 460.34 548.57 465.59 542.47 467.68C536.36 469.78 533.78 463.04 533.78 463.04C533.78 463.04 537.07 466.79 540.65 465.74C544.24 464.69 541.4 460.34 541.4 460.34C541.4 460.34 534.6 454.88 536.32 451.64Z" />
		<path id="Layer" class="shp7" d="M617.16 436.13C617.16 436.13 621.25 435.83 628.62 442.72C628.62 442.72 621.15 436.93 617.16 436.13Z" />
		<path id="Layer" class="shp7" d="M611.29 439.42C611.29 439.42 619.95 440.62 625.53 445.11C625.53 445.11 615.17 440.22 611.29 439.42Z" />
		<path id="Layer" class="shp7" d="M621.43 451.53C621.43 451.53 636.82 448.83 644.89 456.77C644.89 456.77 634.28 451.08 621.43 451.53Z" />
		<path id="Layer" class="shp7" d="M634.2 446.11C634.2 446.11 642.12 447.46 644.51 453C644.51 453 638.83 447.16 634.2 446.11Z" />
		<path id="Layer" class="shp7" d="M540.8 469.63C540.8 469.63 539.76 473.6 535.35 475.77C530.94 477.95 541.33 477.5 540.8 469.63Z" />
		<path id="Layer" class="shp7" d="M566.06 488.26C566.06 488.26 572.41 493 581.67 493.97C590.94 494.95 600.5 493.3 599.46 493.97C598.41 494.65 586.75 497.05 579.51 495.4C572.26 493.75 566.06 488.26 566.06 488.26Z" />
		<path id="Layer" class="shp7" d="M559.38 493.65C559.38 493.65 565.36 493.32 569.64 497.43C573.93 501.54 581.9 506.73 587.68 507.13C593.45 507.53 593.25 508.83 598.64 510.53C604.02 512.23 610.39 509.23 610.39 509.23C610.39 509.23 602.66 514.12 594.67 512.43C586.68 510.73 586.68 511.13 578.31 509.43C569.94 507.73 561.36 498.2 559.38 493.65Z" />
		<path id="Layer" class="shp10" d="M425.49 461.49C417.92 464.09 410.54 464.69 408.75 463.49C406.96 462.29 412.34 458.3 421.3 457.05C430.27 455.81 436.64 458.5 436.64 458.5C436.64 458.5 433.06 458.9 425.49 461.49Z" />
		<path id="Layer" class="shp7" d="M465.84 588.43C466.43 589.72 464.14 594.32 464.14 594.32C464.14 594.32 457.97 603.4 456.27 600.91C454.58 598.41 452.89 596.86 451.15 598.91C438.79 613.5 433.64 620.52 432.55 622.22C431.45 623.92 445.01 603.01 447.7 596.91C450.39 590.82 456.69 582.62 456.69 582.62C456.69 582.62 465.24 587.13 465.84 588.43Z" />
		<path id="Layer" class="shp7" d="M593.8 301.89C593.8 301.89 581.7 311.09 556.19 313.89C556.19 313.89 564.36 312.89 570.74 309.09C570.74 309.09 557.79 312.49 543.44 312.09C543.44 312.09 554.21 311.78 560.18 309.29C560.18 309.29 548.23 309.79 545.44 311.19C545.44 311.19 550.22 309.1 555.1 308.5C555.1 308.5 544.34 303.3 530.09 312.09C530.09 312.09 535.28 305.3 548.92 303" />
		<path id="Layer" class="shp7" d="M434.22 320.87C434.22 320.87 447.29 325.85 459.14 319.88C459.14 319.88 452.52 321.59 447.79 321.15C447.65 321.14 447.5 321.13 447.36 321.11C442.61 320.52 455.56 322.38 461.73 313.83C467.9 305.29 468.97 305.42 469.29 305.26C469.61 305.11 483.43 302.32 483.43 302.32L491.95 300.51L496.8 299.5C496.8 299.5 471.42 329.04 452.07 328.26C452.07 328.26 464.52 326.17 471.06 318.16C471.06 318.16 470.13 319.28 465.09 321.62C465.09 321.62 470.67 318.24 472.74 313.08C472.74 313.08 462.92 323.23 451.3 324.95C439.67 326.67 434.22 320.87 434.22 320.87Z" />
		<path id="Layer" class="shp7" d="M538.11 301.89C538.11 301.89 532.13 301.55 521.38 312.34C521.38 312.34 525.41 306.95 526.76 305.9C526.76 305.9 515.85 307.55 501.2 317.73C501.2 317.73 511.36 307.1 521.23 305.3C521.23 305.3 506.13 305.3 494.03 314.73C494.03 314.73 500.9 305 522.42 300.8" />
		<path id="Layer" class="shp7" d="M510.47 299.5C498.81 302.23 480.73 319.23 480.73 319.23C489.7 306.2 510.47 297.51 510.47 297.51" />
		<path id="Layer" fill-rule="evenodd" class="shp7" d="M644.03 497.35C644.03 497.35 640.48 498.34 633.31 493.45C626.14 488.56 620.75 482.87 616.77 480.37C612.78 477.87 608.3 477.67 608.3 477.67C608.3 477.67 608 485.56 604.12 488.86C600.23 492.15 583.19 491.55 579.11 488.36C575.03 485.16 574.83 478.57 574.83 478.57C574.83 478.57 571.64 481.27 573.03 484.66C573.03 484.66 571.54 487.06 567.85 484.76C567.85 484.76 568.25 487.66 562.77 488.56C557.29 489.46 547.83 489.66 548.62 486.76C549.42 483.86 552.51 482.67 552.51 482.67C552.51 482.67 546.23 483.66 542.75 480.57C542.75 480.57 544.94 481.77 549.92 480.27C549.92 480.27 544.47 479.12 543.87 473.27C543.87 473.27 544.31 476.82 553.88 471.88C563.44 466.94 574.43 458.32 590.49 459.9C606.55 461.47 620.38 463.94 628.6 470.46C636.82 476.97 638.24 483.56 640.25 488.28C642.27 493 644.06 496.37 647.8 496.37C647.8 496.37 644.74 496.93 642.72 496.03C640.7 495.14 640.59 497.31 644.03 497.35ZM604.47 481.17C603.27 481.02 601.92 487.46 597.89 487.61C593.85 487.76 585.63 486.26 583.54 483.41C581.45 480.57 578.31 480.2 579.36 482.36C579.36 482.36 581.03 487.5 585.93 489.26C590.84 491.01 597.74 491.22 601.62 489.26C605.51 487.29 605.66 481.32 604.47 481.17ZM624.79 474.81C624.94 473.45 615.82 466.8 607.68 463.86C599.53 460.93 592.28 462.07 586.38 462.96C586.38 462.96 578.68 464.91 578.76 467.08C578.83 469.26 584.36 467.01 591.61 466.71C598.86 466.41 610.14 468.66 616.19 471.65C622.25 474.65 624.64 476.18 624.79 474.81ZM593.66 475.72C596.84 475.87 597.99 475.37 597.59 474.03C597.59 474.03 594.9 471.23 593.31 472.28C591.71 473.33 590.46 475.57 593.66 475.72Z" />
		<path id="Layer" class="shp7" d="M605.51 435.18C605.51 435.18 616.41 437.25 619.16 440.02C619.16 440.02 611.99 437.44 605.51 435.18Z" />
		<path id="Layer" class="shp7" d="M607.9 440.02C607.9 440.02 615.52 441.09 618.81 443.42C618.81 443.42 610.33 440.43 607.9 440.02Z" />
		<path id="Layer" class="shp7" d="M629.12 443.42C629.12 443.42 633.6 443.82 634.2 447.14L629.12 443.42Z" />
		<path id="Layer" class="shp7" d="M636.39 449.56C636.18 449.51 640.23 449.49 642.52 452.62C642.52 452.62 638.88 450.11 636.39 449.56Z" />
		<path id="Layer" class="shp7" d="M566.06 459.71C566.06 459.71 553.94 462.34 546.03 468.09C546.03 468.09 561.27 461.46 566.06 459.71Z" />
		<path id="Layer" class="shp7" d="M633.16 457.05C633.16 457.05 648.7 463.49 652.73 476.37C652.73 476.37 645.04 463.09 633.16 457.05Z" />
		<path id="Layer" class="shp7" d="M646.01 461.69C646.01 461.69 652.58 469.48 653.78 480.42C653.78 480.42 655.08 468.47 646.01 461.69Z" />
		<path id="Layer" class="shp1" d="M474.25 1011.8C474.25 1011.8 473.36 1011.12 471.71 1009.86C458.66 980.84 444.76 950.75 437.24 937.16C420.51 906.9 405.26 862.56 383.15 832C361.03 801.44 346.09 784.06 349.97 759.5C351.97 746.88 355.36 737.2 358.19 730.76C352.99 744.68 346.34 773.58 366.71 799.64C394.8 835.6 414.83 887.13 425.89 909.9C427.06 912.31 428.71 915.75 430.73 919.96C446.97 957.15 474.22 1011.73 474.25 1011.8L474.25 1011.8Z" />
		<path id="Layer" class="shp11" d="M437.24 937.16C420.51 906.9 405.26 862.56 383.15 832C361.03 801.44 346.09 784.06 349.97 759.5C351.97 746.88 355.36 737.2 358.19 730.76C352.99 744.68 346.34 773.58 366.71 799.64C394.8 835.6 414.83 887.13 425.89 909.9C436.94 932.67 490.44 1045.62 494.63 1055.81C498.81 1065.99 501.4 1069.69 501.4 1069.69C501.4 1069.69 500.41 1029.77 509.95 1005.82C504.92 1030.27 502.4 1079.48 502.4 1079.48C502.4 1079.48 453.98 967.42 437.24 937.16Z" />
		<path id="Layer" class="shp6" d="M580.48 575.76C580.48 575.76 613.23 597.53 613.59 640C613.59 640 597.92 593.6 580.48 575.76Z" />
		<path id="Layer" class="shp7" d="M590.72 591.5C589.97 589.67 587.65 587.83 587.65 587.83C595.57 591.95 600.2 601.76 600.2 601.76C597.81 598.61 591.46 593.32 591.46 593.32C591.46 593.32 598.74 599.91 603.61 607.9C608.5 615.89 611.09 619.98 611.09 619.98C608.1 619.78 605.21 617.29 605.21 617.29C609.5 624.18 609.59 632.27 609.59 632.27C608.8 629.47 607 627.27 607 627.27C609 633.46 608.2 637.56 608.2 637.56C603.72 610.6 582.8 587.82 582.8 587.82C587.13 588.72 590.72 591.5 590.72 591.5Z" />
		<path id="Layer" class="shp5" d="M490.31 511.82C490.31 512.36 478.82 544.48 471.48 555.32C464.14 566.16 470.15 579.95 460.13 587.82C450.12 595.7 433.29 621.84 433.56 620.5C433.82 619.16 437.57 612.47 445.71 596.68C453.86 580.89 453.19 579.82 454.49 566.7C455.8 553.58 466.67 546.22 467.74 537.65C468.81 529.09 465.07 526.14 459.86 523.73C454.66 521.33 458.66 513.83 464.27 505.8C469.88 497.77 467.4 497.08 457.21 502.9C447.03 508.72 430.36 507.41 436.65 506.6C442.93 505.8 453.99 497.5 456.66 494.56C459.33 491.61 451.59 490.54 449.05 489.07C446.51 487.6 450.12 485.99 452.79 486.39C455.46 486.79 454.66 484.38 450.12 482.78C445.58 481.17 444.11 492.95 435.7 495.96C427.29 498.98 414.47 493.08 414.47 493.08L408.33 485.12C408.33 485.12 409.55 484.36 411.3 483.27C414.18 489.56 420.55 494.02 427.81 494.02C437.71 494.02 445.97 485.74 445.97 475.82C445.97 475.5 445.94 475.2 445.92 474.89L453.76 473.26C453.76 473.26 465.74 472.07 465.94 473.26C466.13 474.46 484.43 492.68 484.56 493.64C484.7 494.61 490.31 511.29 490.31 511.82Z" />
		<path id="Layer" class="shp0" d="M574.69 456.14C574.69 456.14 586.33 449.91 599.54 451.08C612.74 452.26 620.9 455.77 619.16 459.71C617.42 463.64 610.36 461.1 599.54 458.55C588.71 456.01 575.36 460.16 573.49 458.69C571.62 457.21 574.69 456.14 574.69 456.14Z" />
		<path id="Layer" class="shp12" d="M573.27 443.42C573.27 443.42 563.17 447.29 554.69 455.42C556.5 453.81 560.19 451.15 566.06 449.56C566.06 449.56 556.35 454.89 552.35 461.74C552.35 461.74 558.46 457.47 564.1 456.34C564.1 456.34 556.13 459.24 551.26 464.2C547.91 465.64 544.78 466.89 542.47 467.68C536.36 469.78 533.78 463.04 533.78 463.04C533.78 463.04 537.07 466.79 540.65 465.74C544.24 464.69 541.4 460.34 541.4 460.34C541.4 460.34 534.6 454.88 536.32 451.64C538.04 448.4 544.46 444.91 544.46 444.91C543.64 445.81 543.87 446.86 543.87 446.86C549.17 442.74 561.13 438.92 561.13 438.92C558.66 440.2 553.51 444.84 553.51 444.84C553.51 444.84 564.11 436.53 575.25 435.48C577.92 435.23 580.6 435.16 583.14 435.19C586.75 435.5 590.25 435.84 591.66 436.12C591.66 436.12 575.29 435.35 563.68 445.28C563.68 445.28 565.43 444.39 573.27 443.42Z" />
		<path id="Layer" class="shp7" d="M629.16 484.71C622.76 487.72 612.74 488.26 612.74 488.26C618.62 487.04 624.63 481.17 625.03 481.17" />
		<path id="Layer" class="shp7" d="M557.33 487.24C557.95 490.63 558.85 490.99 558.85 490.99C558.85 490.99 554.84 488.4 554.13 490.54C553.42 492.68 557.51 496.7 557.51 496.7C553.59 494.56 548.83 487.76 548.83 487.76C548.83 487.76 556.71 483.85 557.33 487.24Z" />
		<path id="Layer" class="shp6" d="M646.35 498.14C646.35 498.14 644.57 500.45 645.72 501.87C646.88 503.3 650.71 504.91 651.15 506.16C651.6 507.41 647.32 503.21 644.03 503.66C640.74 504.1 639.31 505.46 640.29 506.39C641.27 507.32 644.3 507.32 645.1 508.03C645.9 508.74 638.51 505.98 632.99 507.49C627.47 509.01 635.22 500.53 635.22 500.53L646.35 498.14Z" />
		<path id="Layer" class="shp5" d="M466.42 499.1C466.42 499.1 456.98 506.74 449.21 512.78C441.44 518.83 430.02 525.74 423.99 525.79C423.99 525.79 428.98 526.86 433.96 525.79C433.96 525.79 418.83 532.93 402.98 530.96C387.14 529 382.33 533.64 388.21 539.53C394.08 545.42 411 558.8 414.38 575.76C417.76 592.71 421.32 619.12 422.03 628.76C422.75 638.39 423.99 660.34 428.62 667.3C433.25 674.26 366.7 594.28 366.42 594.12C366.14 593.96 357.95 565.4 355.81 554.34C353.67 543.27 347.62 521.24 347.62 521.24L351.18 516.07C351.18 516.07 385.36 505.65 402.72 510.81C420.08 515.97 427.29 516.55 437.7 512.78C448.11 509.01 454.97 505.8 458.8 503.21C462.62 500.62 466.42 499.1 466.42 499.1Z" />
		<path id="Layer" class="shp6" d="M596.24 641.86C596.24 641.86 600.5 643.75 602.64 643.04C604.78 642.32 604.38 644.55 602.2 645.49C600.01 646.43 592 647.5 588.8 649.46C585.59 651.42 575.89 655.84 567.61 656.37C559.33 656.91 544.51 659.05 551.06 664C557.6 668.96 562.81 675.62 554.8 685.47C546.78 695.32 512.2 698 511.4 716.74C510.6 735.48 548.08 736.72 579.41 726.37C610.74 716.02 586.19 752.07 584.93 752.43C583.68 752.79 524.2 768.49 511.39 764.21C498.58 759.93 449.45 744.22 447.67 739.22C445.89 734.23 440.55 708.17 440.9 705.32C441.26 702.46 456.57 664.27 458.35 662.49C460.13 660.7 469.74 651.07 471.17 648.57C472.59 646.07 486.48 626.08 486.48 625.01C486.48 623.94 497.87 632.86 497.87 632.86C497.87 632.86 506.77 636.19 507.84 637.56C508.91 638.93 528.85 644.28 528.85 644.28C528.85 644.28 542.38 640.71 543.45 640C544.51 639.29 554.84 638.33 555.91 637.56C556.98 636.79 565.82 637.56 565.82 637.56C565.82 637.56 569.79 638.93 570.86 640C571.93 641.07 580.47 644.28 580.47 644.28L591.16 640L596.24 641.86Z" />
		<path id="Layer" class="shp5" d="M556.43 578.7C556.43 578.7 554.31 591.64 545.76 594.85C537.22 598.06 531.52 595.56 535.08 604.84C538.64 614.12 544.69 622.87 530.98 625.01C517.28 627.15 508.2 627.69 513 631.26C517.81 634.83 523.09 637.68 534.07 631.97C545.05 626.26 555.02 625.9 561.25 630.54C567.48 635.18 569.53 639.86 578.87 638.93C588.22 638 590.27 639.64 590.98 641.07C591.69 642.5 597.03 644.46 597.03 644.46C597.03 644.46 594 647.32 588.13 646.96C582.26 646.6 581.01 646.07 574.96 648.39C568.9 650.71 555.91 652.14 548.79 650.71C541.67 649.28 543.09 649.64 534.19 652.85C525.29 656.06 521.19 657.31 514.25 657.31C507.31 657.31 501.61 661.06 505.53 663.02C509.44 664.99 526.18 668.11 533.03 668.11C539.89 668.11 546.83 669.73 547.1 674.36C547.1 674.36 542.56 685.06 524.93 688.27C507.31 691.49 504.19 689.88 497.69 692.56C491.2 695.23 485.06 694.79 479.54 693.09C474.02 691.4 464.14 689.97 464.67 702.37C465.2 714.77 488.26 735.83 502.68 741.37C517.1 746.9 550.21 746.6 577.89 731.58C605.58 716.56 502.32 793.3 498.58 792.23C494.85 791.16 398.18 730.76 398.18 730.76L468.68 656.24L482.03 607.88L492.86 585.57L527.42 590.78L546.03 582.62L551.99 578.7L556.43 578.7L556.43 578.7Z" />
		<path id="Layer" fill-rule="evenodd" class="shp7" d="M703.38 405.82C702.19 428.29 700.99 460.95 697.85 469.64C694.71 478.33 695.61 484.92 692.92 489.71C690.23 494.5 690.83 506.49 690.83 506.49C690.83 506.49 689.79 501.39 689.19 493.65C688.59 485.9 684.7 458.7 681.12 443.87C677.53 429.04 671.85 416.86 671.85 416.86C670.36 411.96 666.97 407.07 666.97 407.07C668.56 409.36 670.56 410.76 670.56 410.76C665.67 405.77 664.98 396.18 664.98 396.18C666.17 398.78 670.16 401.38 670.16 401.38C667.07 397.78 665.97 387.79 665.97 387.79C667.67 391.09 670.76 392.89 670.76 392.89C667.07 388.69 665.67 381.2 665.67 381.2C667.47 384.6 672.25 387.99 672.25 387.99C669.06 383.4 669.16 373.81 669.16 373.81C670.76 376.51 670.56 380.3 670.56 380.3C671.25 376.11 671.05 364.82 671.05 364.82C673.24 374.01 671.35 381.2 671.35 381.2C671.35 381.2 674.54 371.02 672.75 361.83C670.96 352.64 663.78 337.46 653.62 335.46C643.46 333.47 639.07 325.28 625.73 317.09C612.38 308.9 601.62 301.51 601.62 301.51C598.18 299.19 596.84 300.51 587.47 304.9C578.11 309.3 566.95 306.3 525.7 303.9C484.46 301.51 455.17 313.09 433.65 324.48C412.13 335.86 421.1 349.64 431.26 371.81C441.42 393.98 430.06 393.98 406.15 410.16C382.24 426.34 380.85 442.27 380.85 442.27C380.85 442.27 388.42 434.13 393.2 432.53C397.99 430.94 408.94 433.53 419.3 435.19C429.67 436.84 435.64 431.53 447.4 431.73C459.15 431.93 463.54 436.13 473.5 442.72C483.46 449.31 488.84 446.51 492.67 457.05C496.5 467.59 499 491.45 500 511.23C501 531 499.1 544.84 500.3 548.5C501.49 552.18 498.73 554.35 493.65 556.52C488.57 558.69 491.41 553.52 488.42 552.18C485.43 550.83 480.8 553.22 476.91 558.77C473.03 564.31 475.04 563.26 480.87 564.01C486.7 564.76 491.93 562.06 496.71 563.71C501.5 565.36 502.84 574.2 506.88 577.79C510.91 581.39 516.49 586.03 523.21 585.28C529.79 584.55 536.31 581.24 539.3 577.64C542.29 574.05 545.43 573.82 549.09 574.8C552.75 575.77 558.13 575.25 558.13 575.25C558.13 575.25 553.43 586.55 545.73 590.83C538.03 595.09 534.67 590.13 530.89 594.12C527.1 598.11 535.27 608.7 532.68 617.69C530.09 626.68 519.13 620.29 512.36 618.29C505.58 616.29 501.6 622.48 501.8 627.48C502 632.47 504.89 633.37 506.98 633.87C509.07 634.37 516.34 637.06 520.43 638.76C524.51 640.46 533.67 636.17 544.04 632.17C554.4 628.17 562.97 633.67 568.45 637.06C573.92 640.46 576.91 641.06 582.79 638.66C588.67 636.27 591.66 639.66 593.25 641.26C594.85 642.86 599.43 643.26 599.83 644.05C600.23 644.85 596.84 646.05 592.86 646.05C588.87 646.05 582.29 643.85 577.71 645.05C573.13 646.25 570.74 649.85 555.99 648.05C541.25 646.25 540.65 645.85 536.47 648.25C532.28 650.65 526.31 653.24 512.56 653.24C498.81 653.24 498.41 658.64 500.2 662.83C502 667.02 527.3 668.62 537.46 669.02C547.63 669.42 549.02 675.01 545.04 678.41C541.05 681.8 530.49 687.8 514.95 687.6C499.41 687.4 491.24 694.59 479.68 690.99C468.13 687.4 457.77 689.39 458.96 698.58C460.16 707.77 481.28 742.12 510.77 747.72C540.25 753.31 581.7 734.14 588.87 721.35C596.04 708.57 620.75 702.58 644.66 683.4C668.57 664.23 677.34 637.56 677.34 637.56C672.56 666.43 645.66 702.58 645.66 702.58C645.66 702.58 644.66 704.97 644.46 713.76C644.26 722.55 638.98 742.12 634.8 750.06C630.61 758 618.21 766.24 618.21 766.24C621.65 763.25 627.47 755.46 627.47 755.46C627.47 755.46 621.65 761.3 615.22 766.69C608.8 772.08 603.71 781.07 603.71 781.07C606.55 778.98 611.79 775.38 611.79 775.38C606.55 781.97 593.11 794.26 593.11 794.26C603.27 786.02 616.57 774.18 616.57 774.18C598.33 795.76 549.02 835 534.97 840.4C520.93 845.79 518.54 839.8 506.28 833.2C494.03 826.61 482.67 825.41 451.29 810.43C419.91 795.45 373.58 759.2 367.9 747.52C362.22 735.83 363.72 717.86 361.33 701.68C358.94 685.5 354.45 671.72 347.88 654.34C341.3 636.96 340.71 625.28 340.71 625.28C323.97 634.27 320.38 625.58 316.2 615.09C312.02 604.6 308.13 597.41 300.96 580.64C293.78 563.86 296.37 555.97 288.01 538.39C279.64 520.82 278.84 508.83 288.01 503.22C297.17 497.6 309.52 500.84 309.52 500.84C309.52 500.84 310.72 496.45 307.93 490.45C305.14 484.46 301.16 472.08 302.35 449.56C303.55 427.04 296.77 420.15 296.37 379.4C295.97 338.66 330.25 281.93 349.37 260.76C368.5 239.59 371.29 235.59 392.01 226.8C412.74 218.01 402.37 209.23 463.34 201.24C524.31 193.25 609.19 225.61 628.62 246.38C648.05 267.15 680.13 306.3 692.48 331.47C704.83 356.63 704.58 383.35 703.38 405.82ZM417.72 468.28C417.52 470.68 422.7 472.08 430.47 471.48C436.77 470.99 442.8 468.54 448.05 469.33C450.2 469.99 451.59 470.48 451.59 470.48C450.46 469.88 449.28 469.52 448.05 469.33C444.38 468.21 438.49 466.59 433.46 466.09C425.49 465.29 417.92 465.89 417.72 468.28ZM437.7 626.44C437.84 626.24 437.97 626.05 438.1 625.89C439.74 623.34 446.95 613.21 451.45 610.47C457 607.07 462.44 603.42 458.53 604.49C454.61 605.56 453.19 599.85 450.16 599.49C447.13 599.13 453.08 587.82 453.08 587.82C458.46 579.44 463.84 574.94 463.54 567.75C463.24 560.56 466.83 556.07 468.92 551.57C471.02 547.08 471.91 536.29 473.18 525.51C474.45 514.72 473.71 516.82 468.92 515.32C464.14 513.82 474.1 496.25 473.11 493.64C472.11 491.04 463.94 490.06 459.56 489.66C455.17 489.26 452.58 487.34 452.58 487.34C452.58 487.34 455.97 488.66 457.37 487.34C458.76 486.03 454.58 482.87 451.59 480.87C448.6 478.87 445.81 480.07 445.81 480.07C445.81 480.07 445.41 490.66 437.84 493.64C430.27 496.63 416.02 493.64 416.02 493.64C422.4 500.63 437.84 493.64 433.46 500.34C429.07 507.04 419.01 508.13 419.01 508.13C419.01 508.13 423.05 510.23 428.87 511.28C434.7 512.33 447.85 509.18 455.18 504.24C462.5 499.29 469.67 495.97 469.67 495.97C469.67 495.97 468.77 497.94 463.1 501.24C457.42 504.54 444.27 516.22 432.91 520.41C421.55 524.61 405.86 523.41 405.86 523.41C412.14 525.96 420.65 524.46 419.91 524.91C419.16 525.36 406.61 531.8 394.21 527.31C381.8 522.81 371.08 524.59 379.26 532.4C391.52 544.08 381.2 537.99 401.58 562.76C421.96 587.53 415.2 621.67 425.06 656.42C425.06 656.42 432.18 634.47 437.7 626.44ZM437.97 626.24C438.38 625.7 438.88 625.15 439.45 624.6C439.08 624.78 438.63 625.19 438.1 625.89C437.71 626.48 437.63 626.66 437.97 626.24ZM439.45 624.6C442.56 623.08 440.85 637.03 445.5 628.18C450.84 618.01 457.28 615.19 456.57 614.3C455.93 613.5 444.76 619.4 439.45 624.6ZM434.65 481.77C436.05 481.27 434.65 479.07 434.65 479.07C434.65 479.07 432.16 476.47 431.17 477.97C430.17 479.47 433.26 482.26 434.65 481.77ZM425.06 656.42C423.28 635.54 429.07 628.27 436.05 616.29L425.06 656.42ZM423.5 486.63C421.7 487.61 425.29 492.25 428.58 492.85C431.86 493.45 439.34 493.3 441.43 489.26C443.52 485.21 442.7 479.33 441.43 482.51C441.43 482.51 439.63 490 433.66 490.75C427.68 491.5 425.29 485.66 423.5 486.63Z" />
		<path id="Layer" class="shp5" d="M715.33 542.38C715.33 542.38 714.44 531.94 711.77 527.93C709.1 523.91 701.19 524.72 699.45 531.32C697.71 537.92 696.37 550.59 698.24 555.41C700.11 560.23 700.37 560.41 699.04 565.94C697.7 571.47 694.14 579.06 694.14 579.06C694.14 579.06 691.47 567.81 687.29 576.11C683.11 584.41 682.38 590.09 682.38 590.09C682.38 590.09 683.64 574.42 687.47 567.19C691.3 559.96 693.07 561.39 693.16 553.54C693.25 545.69 695.38 527.13 698.85 519.99C702.33 512.85 715.69 501.61 716.84 506.52C718 511.42 714.88 517.76 715.42 523.56C715.95 529.36 715.6 532.57 715.86 535.78C716.13 538.99 715.33 542.38 715.33 542.38Z" />
		<path id="Layer" class="shp7" d="M689.95 516.16C689.95 516.16 710.65 499.41 718.18 499.14C725.72 498.88 720.88 509.63 718.18 518.62C715.49 527.61 718.78 535.7 717.59 538.69C716.39 541.69 708.02 560.53 708.02 560.53C708.02 560.53 715.98 547.98 714.84 537.19C713.7 526.41 715.08 523.41 714.84 516.82C714.6 510.23 704.14 514.12 701.15 519.52C698.16 524.91 691.58 534.8 691.58 534.8L689.95 516.16Z" />
		<path id="Layer" class="shp7" d="M690.08 501.9C689.12 506.28 692.78 522.4 692.78 522.4C692.78 522.4 702.06 514.9 698.72 523.65C695.37 532.39 694.85 538.73 694.85 550.77C694.85 562.82 692.72 558.27 694.85 562.28C696.99 566.3 694.85 572.45 694.85 572.45C694.85 572.45 692.45 562.28 688.45 570.05C684.44 577.81 680.72 598.15 680.72 598.15C680.72 598.15 682.04 588.78 683.1 579.68C684.17 570.58 685.24 567.9 689.43 558.53C693.62 549.17 689.78 538.46 689.54 524C689.29 509.55 689.54 497.43 689.54 497.43C689.54 497.43 691.05 497.52 690.08 501.9Z" />
		<path id="Layer" class="shp5" d="M683.37 580.89C683.37 580.89 678.57 602.17 685.64 604.98C692.72 607.79 696.21 606.85 699.74 601.5C703.27 596.14 705.76 602.04 698.44 609.26C691.12 616.49 681.59 615.55 681.41 610.2C681.24 604.84 678.7 602.44 683.37 580.89Z" />
		<path id="Layer" class="shp7" d="M680.72 616.09L681.41 610.2C681.41 610.2 689.25 612.16 694.94 611.63C700.64 611.09 704.84 594.12 704.84 594.12C704.04 604.3 701.05 612.29 696.27 616.09C691.49 619.88 680.73 616.09 680.72 616.09Z" />
	</g>
</svg>